<svg width="1440" height="2800" viewBox="0 0 1440 2800" fill="none" xmlns="http://www.w3.org/2000/svg">
<g filter="url(#filter0_f_73_1705)">
<ellipse cx="513.969" cy="1793.11" rx="274.218" ry="519.984" transform="rotate(-65.3479 513.969 1793.11)" fill="#B6B926" fill-opacity="0.17"/>
</g>
<g filter="url(#filter1_f_73_1705)">
<ellipse cx="1022.55" cy="1118" rx="355.843" ry="235.178" transform="rotate(-46.4958 1022.55 1118)" fill="#5A7F43" fill-opacity="0.39"/>
</g>
<g filter="url(#filter2_f_73_1705)">
<ellipse cx="392.183" cy="451.176" rx="418" ry="202.5" transform="rotate(-23.8409 392.183 451.176)" fill="#7DAE5E" fill-opacity="0.36"/>
</g>
<path d="M-377 213C-369.358 264.845 -334.05 372.488 -253.959 388.295C-173.868 404.102 -20.36 394.881 46.3826 388.295C269.792 336.281 764.757 247.856 957.343 310.274C1198.07 388.295 1399.07 380.696 1557.26 579.296C1683.82 738.176 1351.18 912.998 1169.03 980.55C1023.83 1004.19 697.047 1044.39 551.538 1016.01C369.651 980.55 257.31 895.435 134.269 903.035C11.2281 910.634 -206.577 918.74 -230.268 992.709C-253.959 1066.68 -277.65 1132.54 -230.268 1226.27C-192.362 1301.25 -30.0403 1356.13 46.3826 1374.2C206.871 1405.28 601.977 1448.78 898.497 1374.2C1195.02 1299.63 1461.22 1343.13 1557.26 1374.2C1641.58 1440.4 1759.63 1614.15 1557.26 1779.51C1304.3 1986.22 1180.5 2056.64 804.497 1966.96C503.697 1895.23 259.857 1937.07 175.537 1966.96L-30.0403 2087.54C-84.81 2151.21 -161.488 2298.81 -30.0403 2379.87C134.269 2481.2 516.383 2562.77 804.497 2527.81C1092.61 2492.85 1210.3 2309.45 1439.57 2403.18C1622.99 2478.16 1594.45 2624.24 1557.26 2687.9C1516.25 2740.93 1394.18 2854.08 1233.99 2882.45C1073.81 2910.82 665.408 2894.27 481.229 2882.45C167.64 2867.08 -412.46 2897.85 -224.154 3143.87C11.2281 3451.4 187.001 3623.15 651.652 3545.13C1116.3 3467.11 1415.88 3264.45 1621.46 3432.15" stroke="#56D74B"/>
<path d="M-377 367.134C-369.358 418.979 -334.05 526.622 -253.959 542.429C-173.868 558.236 -20.36 549.015 46.3826 542.429C269.792 490.414 764.757 401.99 957.343 464.407C1198.07 542.429 1399.07 534.829 1557.26 733.43C1683.82 892.31 1351.18 1067.13 1169.03 1134.68C1023.83 1158.33 697.047 1198.52 551.538 1170.15C369.651 1134.68 257.31 1049.57 134.269 1057.17C11.2281 1064.77 -206.577 1072.87 -230.268 1146.84C-253.959 1220.81 -277.65 1286.67 -230.268 1380.4C-192.362 1455.38 -30.0403 1510.27 46.3826 1528.34C206.871 1559.41 601.977 1602.91 898.497 1528.34C1195.02 1453.76 1461.22 1497.26 1557.26 1528.34C1641.58 1594.54 1759.63 1768.28 1557.26 1933.64C1304.3 2140.35 1180.5 2210.77 804.497 2121.1C503.697 2049.36 259.857 2091.21 175.537 2121.1L-30.0403 2241.68C-84.81 2305.34 -161.488 2452.94 -30.0403 2534C134.269 2635.33 516.383 2716.9 804.497 2681.94C1092.61 2646.98 1210.3 2463.58 1439.57 2557.31C1622.99 2632.29 1594.45 2778.37 1557.26 2842.04C1516.25 2895.07 1394.18 3008.21 1233.99 3036.59C1073.81 3064.96 665.408 3048.41 481.229 3036.59C167.64 3021.22 -412.46 3051.99 -224.154 3298.01C11.2281 3605.53 187.001 3777.28 651.652 3699.26C1116.3 3621.24 1415.88 3418.59 1621.46 3586.28" stroke="#1E3C1C"/>
<path d="M-377 227.012C-369.358 278.858 -334.05 386.5 -253.959 402.307C-173.868 418.114 -20.36 408.894 46.3826 402.307C269.792 350.293 764.757 261.869 957.343 324.286C1198.07 402.307 1399.07 394.708 1557.26 593.308C1683.82 752.188 1351.18 927.011 1169.03 994.562C1023.83 1018.2 697.047 1058.4 551.538 1030.03C369.651 994.562 257.31 909.447 134.269 917.047C11.2281 924.646 -206.577 932.752 -230.268 1006.72C-253.959 1080.69 -277.65 1146.55 -230.268 1240.28C-192.362 1315.26 -30.0402 1370.15 46.3826 1388.22C206.871 1419.29 601.977 1462.79 898.497 1388.22C1195.02 1313.64 1461.22 1357.14 1557.26 1388.22C1641.58 1454.42 1759.63 1628.16 1557.26 1793.52C1304.3 2000.23 1180.5 2070.65 804.497 1980.98C503.697 1909.24 259.857 1951.09 175.537 1980.98L-30.0402 2101.56C-84.81 2165.22 -161.488 2312.82 -30.0402 2393.88C134.269 2495.21 516.383 2576.78 804.497 2541.82C1092.61 2506.86 1210.3 2323.46 1439.57 2417.19C1622.99 2492.17 1594.45 2638.25 1557.26 2701.92C1516.25 2754.94 1394.18 2868.09 1233.99 2896.46C1073.81 2924.83 665.408 2908.28 481.229 2896.46C167.64 2881.1 -412.46 2911.87 -224.154 3157.89C11.2281 3465.41 187.001 3637.16 651.652 3559.14C1116.3 3481.12 1415.88 3278.47 1621.46 3446.16" stroke="#51C947"/>
<path d="M-377 241.024C-369.358 292.87 -334.05 400.512 -253.959 416.319C-173.868 432.126 -20.36 422.906 46.3826 416.319C269.792 364.305 764.757 275.881 957.343 338.298C1198.07 416.319 1399.07 408.72 1557.26 607.32C1683.82 766.2 1351.18 941.023 1169.03 1008.57C1023.83 1032.22 697.047 1072.41 551.538 1044.04C369.651 1008.57 257.31 923.459 134.269 931.059C11.2281 938.658 -206.577 946.765 -230.268 1020.73C-253.959 1094.7 -277.65 1160.56 -230.268 1254.29C-192.362 1329.27 -30.0402 1384.16 46.3826 1402.23C206.871 1433.3 601.977 1476.8 898.497 1402.23C1195.02 1327.65 1461.22 1371.15 1557.26 1402.23C1641.58 1468.43 1759.63 1642.17 1557.26 1807.53C1304.3 2014.24 1180.5 2084.66 804.497 1994.99C503.697 1923.25 259.857 1965.1 175.537 1994.99L-30.0402 2115.57C-84.81 2179.23 -161.488 2326.83 -30.0402 2407.9C134.269 2509.22 516.383 2590.79 804.497 2555.83C1092.61 2520.87 1210.3 2337.47 1439.57 2431.2C1622.99 2506.18 1594.45 2652.26 1557.26 2715.93C1516.25 2768.96 1394.18 2882.1 1233.99 2910.48C1073.81 2938.85 665.408 2922.3 481.229 2910.48C167.64 2895.11 -412.46 2925.88 -224.154 3171.9C11.2281 3479.42 187.001 3651.17 651.652 3573.15C1116.3 3495.13 1415.88 3292.48 1621.46 3460.17" stroke="#4CBB42"/>
<path d="M-377 255.036C-369.358 306.882 -334.05 414.525 -253.959 430.332C-173.868 446.139 -20.36 436.918 46.3826 430.332C269.792 378.317 764.757 289.893 957.343 352.31C1198.07 430.332 1399.07 422.732 1557.26 621.332C1683.82 780.213 1351.18 955.035 1169.03 1022.59C1023.83 1046.23 697.047 1086.42 551.538 1058.05C369.651 1022.59 257.31 937.472 134.269 945.071C11.2281 952.671 -206.577 960.777 -230.268 1034.75C-253.959 1108.71 -277.65 1174.58 -230.268 1268.3C-192.362 1343.28 -30.0402 1398.17 46.3826 1416.24C206.871 1447.31 601.977 1490.82 898.497 1416.24C1195.02 1341.66 1461.22 1385.17 1557.26 1416.24C1641.58 1482.44 1759.63 1656.18 1557.26 1821.55C1304.3 2028.25 1180.5 2098.68 804.497 2009C503.697 1937.26 259.857 1979.11 175.537 2009L-30.0402 2129.58C-84.81 2193.25 -161.488 2340.85 -30.0402 2421.91C134.269 2523.23 516.383 2604.8 804.497 2569.84C1092.61 2534.89 1210.3 2351.49 1439.57 2445.21C1622.99 2520.19 1594.45 2666.27 1557.26 2729.94C1516.25 2782.97 1394.18 2896.12 1233.99 2924.49C1073.81 2952.86 665.408 2936.31 481.229 2924.49C167.64 2909.12 -412.46 2939.89 -224.154 3185.91C11.2281 3493.44 187.001 3665.19 651.652 3587.16C1116.3 3509.14 1415.88 3306.49 1621.46 3474.19" stroke="#47AD3E"/>
<path d="M-377 269.049C-369.358 320.894 -334.05 428.537 -253.959 444.344C-173.868 460.151 -20.36 450.93 46.3826 444.344C269.792 392.329 764.757 303.905 957.343 366.322C1198.07 444.344 1399.07 436.744 1557.26 635.345C1683.82 794.225 1351.18 969.047 1169.03 1036.6C1023.83 1060.24 697.047 1100.43 551.538 1072.06C369.651 1036.6 257.31 951.484 134.269 959.083C11.2281 966.683 -206.577 974.789 -230.268 1048.76C-253.959 1122.73 -277.65 1188.59 -230.268 1282.32C-192.362 1357.3 -30.0402 1412.18 46.3826 1430.25C206.871 1461.33 601.977 1504.83 898.497 1430.25C1195.02 1355.68 1461.22 1399.18 1557.26 1430.25C1641.58 1496.45 1759.63 1670.19 1557.26 1835.56C1304.3 2042.27 1180.5 2112.69 804.497 2023.01C503.697 1951.27 259.857 1993.12 175.537 2023.01L-30.0402 2143.59C-84.81 2207.26 -161.488 2354.86 -30.0402 2435.92C134.269 2537.25 516.383 2618.81 804.497 2583.86C1092.61 2548.9 1210.3 2365.5 1439.57 2459.22C1622.99 2534.21 1594.45 2680.29 1557.26 2743.95C1516.25 2796.98 1394.18 2910.13 1233.99 2938.5C1073.81 2966.87 665.408 2950.32 481.229 2938.5C167.64 2923.13 -412.46 2953.9 -224.154 3199.92C11.2281 3507.45 187.001 3679.2 651.652 3601.18C1116.3 3523.15 1415.88 3320.5 1621.46 3488.2" stroke="#429E3A"/>
<path d="M-377 283.061C-369.358 334.906 -334.05 442.549 -253.959 458.356C-173.868 474.163 -20.36 464.942 46.3826 458.356C269.792 406.341 764.757 317.917 957.343 380.334C1198.07 458.356 1399.07 450.756 1557.26 649.357C1683.82 808.237 1351.18 983.059 1169.03 1050.61C1023.83 1074.25 697.047 1114.45 551.538 1086.07C369.651 1050.61 257.31 965.496 134.269 973.095C11.2281 980.695 -206.577 988.801 -230.268 1062.77C-253.959 1136.74 -277.65 1202.6 -230.268 1296.33C-192.362 1371.31 -30.0402 1426.19 46.3826 1444.26C206.871 1475.34 601.977 1518.84 898.497 1444.26C1195.02 1369.69 1461.22 1413.19 1557.26 1444.26C1641.58 1510.46 1759.63 1684.21 1557.26 1849.57C1304.3 2056.28 1180.5 2126.7 804.497 2037.03C503.697 1965.29 259.857 2007.13 175.537 2037.03L-30.0402 2157.6C-84.81 2221.27 -161.488 2368.87 -30.0402 2449.93C134.269 2551.26 516.383 2632.83 804.497 2597.87C1092.61 2562.91 1210.3 2379.51 1439.57 2473.24C1622.99 2548.22 1594.45 2694.3 1557.26 2757.96C1516.25 2810.99 1394.18 2924.14 1233.99 2952.51C1073.81 2980.88 665.408 2964.33 481.229 2952.51C167.64 2937.14 -412.46 2967.91 -224.154 3213.93C11.2281 3521.46 187.001 3693.21 651.652 3615.19C1116.3 3537.17 1415.88 3334.51 1621.46 3502.21" stroke="#3D9036"/>
<path d="M-377 297.073C-369.358 348.918 -334.05 456.561 -253.959 472.368C-173.868 488.175 -20.36 478.954 46.3826 472.368C269.792 420.354 764.757 331.929 957.343 394.347C1198.07 472.368 1399.07 464.769 1557.26 663.369C1683.82 822.249 1351.18 997.071 1169.03 1064.62C1023.83 1088.27 697.047 1128.46 551.538 1100.09C369.651 1064.62 257.31 979.508 134.269 987.108C11.2281 994.707 -206.577 1002.81 -230.268 1076.78C-253.959 1150.75 -277.65 1216.61 -230.268 1310.34C-192.362 1385.32 -30.0402 1440.21 46.3826 1458.28C206.871 1489.35 601.977 1532.85 898.497 1458.28C1195.02 1383.7 1461.22 1427.2 1557.26 1458.28C1641.58 1524.48 1759.63 1698.22 1557.26 1863.58C1304.3 2070.29 1180.5 2140.71 804.497 2051.04C503.697 1979.3 259.857 2021.15 175.537 2051.04L-30.0402 2171.62C-84.81 2235.28 -161.488 2382.88 -30.0402 2463.94C134.269 2565.27 516.383 2646.84 804.497 2611.88C1092.61 2576.92 1210.3 2393.52 1439.57 2487.25C1622.99 2562.23 1594.45 2708.31 1557.26 2771.98C1516.25 2825 1394.18 2938.15 1233.99 2966.52C1073.81 2994.9 665.408 2978.35 481.229 2966.52C167.64 2951.16 -412.46 2981.93 -224.154 3227.95C11.2281 3535.47 187.001 3707.22 651.652 3629.2C1116.3 3551.18 1415.88 3348.53 1621.46 3516.22" stroke="#388231"/>
<path d="M-377 311.085C-369.358 362.931 -334.05 470.573 -253.959 486.38C-173.868 502.187 -20.36 492.966 46.3826 486.38C269.792 434.366 764.757 345.941 957.343 408.359C1198.07 486.38 1399.07 478.781 1557.26 677.381C1683.82 836.261 1351.18 1011.08 1169.03 1078.63C1023.83 1102.28 697.047 1142.47 551.538 1114.1C369.651 1078.63 257.31 993.52 134.269 1001.12C11.2281 1008.72 -206.577 1016.83 -230.268 1090.79C-253.959 1164.76 -277.65 1230.62 -230.268 1324.35C-192.362 1399.33 -30.0402 1454.22 46.3826 1472.29C206.871 1503.36 601.977 1546.87 898.497 1472.29C1195.02 1397.71 1461.22 1441.22 1557.26 1472.29C1641.58 1538.49 1759.63 1712.23 1557.26 1877.6C1304.3 2084.3 1180.5 2154.72 804.497 2065.05C503.697 1993.31 259.857 2035.16 175.537 2065.05L-30.0402 2185.63C-84.81 2249.3 -161.488 2396.89 -30.0402 2477.96C134.269 2579.28 516.383 2660.85 804.497 2625.89C1092.61 2590.94 1210.3 2407.53 1439.57 2501.26C1622.99 2576.24 1594.45 2722.32 1557.26 2785.99C1516.25 2839.02 1394.18 2952.16 1233.99 2980.54C1073.81 3008.91 665.408 2992.36 481.229 2980.54C167.64 2965.17 -412.46 2995.94 -224.154 3241.96C11.2281 3549.49 187.001 3721.23 651.652 3643.21C1116.3 3565.19 1415.88 3362.54 1621.46 3530.23" stroke="#33742D"/>
<path d="M-377 325.097C-369.358 376.943 -334.05 484.585 -253.959 500.392C-173.868 516.199 -20.36 506.979 46.3826 500.392C269.792 448.378 764.757 359.954 957.343 422.371C1198.07 500.392 1399.07 492.793 1557.26 691.393C1683.82 850.273 1351.18 1025.1 1169.03 1092.65C1023.83 1116.29 697.047 1156.48 551.538 1128.11C369.651 1092.65 257.31 1007.53 134.269 1015.13C11.2281 1022.73 -206.577 1030.84 -230.268 1104.81C-253.959 1178.77 -277.65 1244.64 -230.268 1338.36C-192.362 1413.35 -30.0402 1468.23 46.3826 1486.3C206.871 1517.37 601.977 1560.88 898.497 1486.3C1195.02 1411.72 1461.22 1455.23 1557.26 1486.3C1641.58 1552.5 1759.63 1726.24 1557.26 1891.61C1304.3 2098.31 1180.5 2168.74 804.497 2079.06C503.697 2007.32 259.857 2049.17 175.537 2079.06L-30.0402 2199.64C-84.81 2263.31 -161.488 2410.91 -30.0402 2491.97C134.269 2593.3 516.383 2674.86 804.497 2639.91C1092.61 2604.95 1210.3 2421.55 1439.57 2515.27C1622.99 2590.26 1594.45 2736.33 1557.26 2800C1516.25 2853.03 1394.18 2966.18 1233.99 2994.55C1073.81 3022.92 665.408 3006.37 481.229 2994.55C167.64 2979.18 -412.46 3009.95 -224.154 3255.97C11.2281 3563.5 187.001 3735.25 651.652 3657.23C1116.3 3579.2 1415.88 3376.55 1621.46 3544.25" stroke="#2E6629"/>
<path d="M-377 339.109C-369.358 390.955 -334.05 498.598 -253.959 514.405C-173.868 530.212 -20.36 520.991 46.3826 514.405C269.792 462.39 764.757 373.966 957.343 436.383C1198.07 514.405 1399.07 506.805 1557.26 705.405C1683.82 864.286 1351.18 1039.11 1169.03 1106.66C1023.83 1130.3 697.047 1170.49 551.538 1142.12C369.651 1106.66 257.31 1021.54 134.269 1029.14C11.2281 1036.74 -206.577 1044.85 -230.268 1118.82C-253.959 1192.79 -277.65 1258.65 -230.268 1352.38C-192.362 1427.36 -30.0402 1482.24 46.3826 1500.31C206.871 1531.39 601.977 1574.89 898.497 1500.31C1195.02 1425.74 1461.22 1469.24 1557.26 1500.31C1641.58 1566.51 1759.63 1740.25 1557.26 1905.62C1304.3 2112.33 1180.5 2182.75 804.497 2093.07C503.697 2021.33 259.857 2063.18 175.537 2093.07L-30.0402 2213.65C-84.81 2277.32 -161.488 2424.92 -30.0402 2505.98C134.269 2607.31 516.383 2688.88 804.497 2653.92C1092.61 2618.96 1210.3 2435.56 1439.57 2529.29C1622.99 2604.27 1594.45 2750.35 1557.26 2814.01C1516.25 2867.04 1394.18 2980.19 1233.99 3008.56C1073.81 3036.93 665.408 3020.38 481.229 3008.56C167.64 2993.19 -412.46 3023.96 -224.154 3269.98C11.2281 3577.51 187.001 3749.26 651.652 3671.24C1116.3 3593.22 1415.88 3390.56 1621.46 3558.26" stroke="#295824"/>
<path d="M-377 353.122C-369.358 404.967 -334.05 512.61 -253.959 528.417C-173.868 544.224 -20.36 535.003 46.3826 528.417C269.792 476.402 764.757 387.978 957.343 450.395C1198.07 528.417 1399.07 520.817 1557.26 719.417C1683.82 878.298 1351.18 1053.12 1169.03 1120.67C1023.83 1144.31 697.047 1184.51 551.538 1156.14C369.651 1120.67 257.31 1035.56 134.269 1043.16C11.2281 1050.76 -206.577 1058.86 -230.268 1132.83C-253.959 1206.8 -277.65 1272.66 -230.268 1366.39C-192.362 1441.37 -30.0402 1496.26 46.3826 1514.33C206.871 1545.4 601.977 1588.9 898.497 1514.33C1195.02 1439.75 1461.22 1483.25 1557.26 1514.33C1641.58 1580.53 1759.63 1754.27 1557.26 1919.63C1304.3 2126.34 1180.5 2196.76 804.497 2107.09C503.697 2035.35 259.857 2077.2 175.537 2107.09L-30.0402 2227.67C-84.81 2291.33 -161.488 2438.93 -30.0402 2519.99C134.269 2621.32 516.383 2702.89 804.497 2667.93C1092.61 2632.97 1210.3 2449.57 1439.57 2543.3C1622.99 2618.28 1594.45 2764.36 1557.26 2828.03C1516.25 2881.05 1394.18 2994.2 1233.99 3022.57C1073.81 3050.94 665.408 3034.39 481.229 3022.57C167.64 3007.2 -412.46 3037.97 -224.154 3284C11.2281 3591.52 187.001 3763.27 651.652 3685.25C1116.3 3607.23 1415.88 3404.57 1621.46 3572.27" stroke="#234A20"/>
<defs>
<filter id="filter0_f_73_1705" x="-172.378" y="1262.72" width="1372.69" height="1060.78" filterUnits="userSpaceOnUse" color-interpolation-filters="sRGB">
<feFlood flood-opacity="0" result="BackgroundImageFix"/>
<feBlend mode="normal" in="SourceGraphic" in2="BackgroundImageFix" result="shape"/>
<feGaussianBlur stdDeviation="100" result="effect1_foregroundBlur_73_1705"/>
</filter>
<filter id="filter1_f_73_1705" x="524.014" y="613.284" width="997.064" height="1009.43" filterUnits="userSpaceOnUse" color-interpolation-filters="sRGB">
<feFlood flood-opacity="0" result="BackgroundImageFix"/>
<feBlend mode="normal" in="SourceGraphic" in2="BackgroundImageFix" result="shape"/>
<feGaussianBlur stdDeviation="100" result="effect1_foregroundBlur_73_1705"/>
</filter>
<filter id="filter2_f_73_1705" x="-198.894" y="0.470047" width="1182.15" height="901.411" filterUnits="userSpaceOnUse" color-interpolation-filters="sRGB">
<feFlood flood-opacity="0" result="BackgroundImageFix"/>
<feBlend mode="normal" in="SourceGraphic" in2="BackgroundImageFix" result="shape"/>
<feGaussianBlur stdDeviation="100" result="effect1_foregroundBlur_73_1705"/>
</filter>
</defs>
</svg>
