<svg width="1440" height="1024" viewBox="0 0 1440 1024" fill="none" xmlns="http://www.w3.org/2000/svg">
<g opacity="0.56">
<path d="M-134.5 905L12.5 774.5C114 736.333 355.2 667.6 508 698C660.8 728.4 906 572.667 1009.5 491C1089.17 440.167 1275.8 337.4 1385 333C1494.2 328.6 1579.5 331.167 1608.5 333" stroke="#56D74B"/>
<path d="M-134.5 1055L12.5 924.5C114 886.333 355.2 817.6 508 848C660.8 878.4 906 722.667 1009.5 641C1089.17 590.167 1275.8 487.4 1385 483C1494.2 478.6 1579.5 481.167 1608.5 483" stroke="#193A17"/>
<path d="M-134.5 914.375L12.5 783.875C114 745.708 355.2 676.975 508 707.375C660.8 737.775 906 582.042 1009.5 500.375C1089.17 449.542 1275.8 346.775 1385 342.375C1494.2 337.975 1579.5 340.542 1608.5 342.375" stroke="#52CD48"/>
<path d="M-134.5 923.75L12.5 793.25C114 755.083 355.2 686.35 508 716.75C660.8 747.15 906 591.417 1009.5 509.75C1089.17 458.917 1275.8 356.15 1385 351.75C1494.2 347.35 1579.5 349.917 1608.5 351.75" stroke="#4FC344"/>
<path d="M-134.5 933.125L12.5 802.625C114 764.458 355.2 695.725 508 726.125C660.8 756.525 906 600.792 1009.5 519.125C1089.17 468.292 1275.8 365.525 1385 361.125C1494.2 356.725 1579.5 359.292 1608.5 361.125" stroke="#4BB941"/>
<path d="M-134.5 942.5L12.5 812C114 773.833 355.2 705.1 508 735.5C660.8 765.9 906 610.167 1009.5 528.5C1089.17 477.667 1275.8 374.9 1385 370.5C1494.2 366.1 1579.5 368.667 1608.5 370.5" stroke="#47B03E"/>
<path d="M-134.5 951.875L12.5 821.375C114 783.208 355.2 714.475 508 744.875C660.8 775.275 906 619.542 1009.5 537.875C1089.17 487.042 1275.8 384.275 1385 379.875C1494.2 375.475 1579.5 378.042 1608.5 379.875" stroke="#43A63B"/>
<path d="M-134.5 961.25L12.5 830.75C114 792.583 355.2 723.85 508 754.25C660.8 784.65 906 628.917 1009.5 547.25C1089.17 496.417 1275.8 393.65 1385 389.25C1494.2 384.85 1579.5 387.417 1608.5 389.25" stroke="#3F9C37"/>
<path d="M-134.5 970.625L12.5 840.125C114 801.958 355.2 733.225 508 763.625C660.8 794.025 906 638.292 1009.5 556.625C1089.17 505.792 1275.8 403.025 1385 398.625C1494.2 394.225 1579.5 396.792 1608.5 398.625" stroke="#3C9234"/>
<path d="M-134.5 980L12.5 849.5C114 811.333 355.2 742.6 508 773C660.8 803.4 906 647.667 1009.5 566C1089.17 515.167 1275.8 412.4 1385 408C1494.2 403.6 1579.5 406.167 1608.5 408" stroke="#388831"/>
<path d="M-134.5 989.375L12.5 858.875C114 820.708 355.2 751.975 508 782.375C660.8 812.775 906 657.042 1009.5 575.375C1089.17 524.542 1275.8 421.775 1385 417.375C1494.2 412.975 1579.5 415.542 1608.5 417.375" stroke="#347E2D"/>
<path d="M-134.5 998.75L12.5 868.25C114 830.083 355.2 761.35 508 791.75C660.8 822.15 906 666.417 1009.5 584.75C1089.17 533.917 1275.8 431.15 1385 426.75C1494.2 422.35 1579.5 424.917 1608.5 426.75" stroke="#30752A"/>
<path d="M-134.5 1008.12L12.5 877.625C114 839.458 355.2 770.725 508 801.125C660.8 831.525 906 675.792 1009.5 594.125C1089.17 543.292 1275.8 440.525 1385 436.125C1494.2 431.725 1579.5 434.292 1608.5 436.125" stroke="#2C6B27"/>
<path d="M-134.5 1017.5L12.5 887C114 848.833 355.2 780.1 508 810.5C660.8 840.9 906 685.167 1009.5 603.5C1089.17 552.667 1275.8 449.9 1385 445.5C1494.2 441.1 1579.5 443.667 1608.5 445.5" stroke="#296124"/>
<path d="M-134.5 1026.88L12.5 896.375C114 858.208 355.2 789.475 508 819.875C660.8 850.275 906 694.542 1009.5 612.875C1089.17 562.042 1275.8 459.275 1385 454.875C1494.2 450.475 1579.5 453.042 1608.5 454.875" stroke="#255720"/>
<path d="M-134.5 1036.25L12.5 905.75C114 867.583 355.2 798.85 508 829.25C660.8 859.65 906 703.917 1009.5 622.25C1089.17 571.417 1275.8 468.65 1385 464.25C1494.2 459.85 1579.5 462.417 1608.5 464.25" stroke="#214D1D"/>
<path d="M-134.5 1045.62L12.5 915.125C114 876.958 355.2 808.225 508 838.625C660.8 869.025 906 713.292 1009.5 631.625C1089.17 580.792 1275.8 478.025 1385 473.625C1494.2 469.225 1579.5 471.792 1608.5 473.625" stroke="#1D431A"/>
<path d="M-134.5 914.375L12.5 783.875C114 745.708 355.2 676.975 508 707.375C660.8 737.775 906 582.042 1009.5 500.375C1089.17 449.542 1275.8 346.775 1385 342.375C1494.2 337.975 1579.5 340.542 1608.5 342.375" stroke="#52CD48"/>
<path d="M-134.5 923.75L12.5 793.25C114 755.083 355.2 686.35 508 716.75C660.8 747.15 906 591.417 1009.5 509.75C1089.17 458.917 1275.8 356.15 1385 351.75C1494.2 347.35 1579.5 349.917 1608.5 351.75" stroke="#4FC344"/>
<path d="M-134.5 933.125L12.5 802.625C114 764.458 355.2 695.725 508 726.125C660.8 756.525 906 600.792 1009.5 519.125C1089.17 468.292 1275.8 365.525 1385 361.125C1494.2 356.725 1579.5 359.292 1608.5 361.125" stroke="#4BB941"/>
<path d="M-134.5 942.5L12.5 812C114 773.833 355.2 705.1 508 735.5C660.8 765.9 906 610.167 1009.5 528.5C1089.17 477.667 1275.8 374.9 1385 370.5C1494.2 366.1 1579.5 368.667 1608.5 370.5" stroke="#47B03E"/>
<path d="M-134.5 951.875L12.5 821.375C114 783.208 355.2 714.475 508 744.875C660.8 775.275 906 619.542 1009.5 537.875C1089.17 487.042 1275.8 384.275 1385 379.875C1494.2 375.475 1579.5 378.042 1608.5 379.875" stroke="#43A63B"/>
<path d="M-134.5 961.25L12.5 830.75C114 792.583 355.2 723.85 508 754.25C660.8 784.65 906 628.917 1009.5 547.25C1089.17 496.417 1275.8 393.65 1385 389.25C1494.2 384.85 1579.5 387.417 1608.5 389.25" stroke="#3F9C37"/>
<path d="M-134.5 970.625L12.5 840.125C114 801.958 355.2 733.225 508 763.625C660.8 794.025 906 638.292 1009.5 556.625C1089.17 505.792 1275.8 403.025 1385 398.625C1494.2 394.225 1579.5 396.792 1608.5 398.625" stroke="#3C9234"/>
<path d="M-134.5 980L12.5 849.5C114 811.333 355.2 742.6 508 773C660.8 803.4 906 647.667 1009.5 566C1089.17 515.167 1275.8 412.4 1385 408C1494.2 403.6 1579.5 406.167 1608.5 408" stroke="#388831"/>
<path d="M-134.5 989.375L12.5 858.875C114 820.708 355.2 751.975 508 782.375C660.8 812.775 906 657.042 1009.5 575.375C1089.17 524.542 1275.8 421.775 1385 417.375C1494.2 412.975 1579.5 415.542 1608.5 417.375" stroke="#347E2D"/>
<path d="M-134.5 998.75L12.5 868.25C114 830.083 355.2 761.35 508 791.75C660.8 822.15 906 666.417 1009.5 584.75C1089.17 533.917 1275.8 431.15 1385 426.75C1494.2 422.35 1579.5 424.917 1608.5 426.75" stroke="#30752A"/>
<path d="M-134.5 1008.12L12.5 877.625C114 839.458 355.2 770.725 508 801.125C660.8 831.525 906 675.792 1009.5 594.125C1089.17 543.292 1275.8 440.525 1385 436.125C1494.2 431.725 1579.5 434.292 1608.5 436.125" stroke="#2C6B27"/>
<path d="M-134.5 1017.5L12.5 887C114 848.833 355.2 780.1 508 810.5C660.8 840.9 906 685.167 1009.5 603.5C1089.17 552.667 1275.8 449.9 1385 445.5C1494.2 441.1 1579.5 443.667 1608.5 445.5" stroke="#296124"/>
<path d="M-134.5 1026.88L12.5 896.375C114 858.208 355.2 789.475 508 819.875C660.8 850.275 906 694.542 1009.5 612.875C1089.17 562.042 1275.8 459.275 1385 454.875C1494.2 450.475 1579.5 453.042 1608.5 454.875" stroke="#255720"/>
<path d="M-134.5 1036.25L12.5 905.75C114 867.583 355.2 798.85 508 829.25C660.8 859.65 906 703.917 1009.5 622.25C1089.17 571.417 1275.8 468.65 1385 464.25C1494.2 459.85 1579.5 462.417 1608.5 464.25" stroke="#214D1D"/>
<path d="M-134.5 1045.62L12.5 915.125C114 876.958 355.2 808.225 508 838.625C660.8 869.025 906 713.292 1009.5 631.625C1089.17 580.792 1275.8 478.025 1385 473.625C1494.2 469.225 1579.5 471.792 1608.5 473.625" stroke="#1D431A"/>
</g>
<g filter="url(#filter0_f_64_39)">
<ellipse cx="26.5" cy="202.5" rx="106.5" ry="92.5" fill="#84B665" fill-opacity="0.64"/>
</g>
<g filter="url(#filter1_f_64_39)">
<ellipse cx="1077.07" cy="508.104" rx="282" ry="124.31" transform="rotate(-25.3574 1077.07 508.104)" fill="#84B665" fill-opacity="0.55"/>
</g>
<g filter="url(#filter2_f_64_39)">
<path d="M129.844 686.378C159.698 738.824 209.814 785.596 271.116 818.225C332.418 850.853 400.852 867.18 464.024 864.248C527.196 861.315 580.928 839.318 615.488 802.24C650.049 765.162 663.152 715.455 652.426 662.121C641.699 608.788 607.852 555.355 557.014 511.5C506.176 467.646 441.709 436.269 375.29 423.053C308.87 409.837 244.89 415.656 194.937 439.456C144.984 463.256 112.361 503.463 102.978 552.795L185.582 579.082C192.149 544.56 214.978 516.424 249.934 499.769C284.891 483.114 329.664 479.042 376.143 488.29C422.623 497.538 467.736 519.495 503.312 550.184C538.887 580.873 562.573 618.265 570.08 655.587C577.586 692.909 568.416 727.693 544.231 753.64C520.046 779.587 482.445 794.98 438.238 797.032C394.031 799.084 346.142 787.659 303.243 764.826C260.345 741.993 225.274 709.262 204.383 672.562L129.844 686.378Z" fill="#B4B665" fill-opacity="0.17"/>
</g>
<defs>
<filter id="filter0_f_64_39" x="-280" y="-90" width="613" height="585" filterUnits="userSpaceOnUse" color-interpolation-filters="sRGB">
<feFlood flood-opacity="0" result="BackgroundImageFix"/>
<feBlend mode="normal" in="SourceGraphic" in2="BackgroundImageFix" result="shape"/>
<feGaussianBlur stdDeviation="100" result="effect1_foregroundBlur_64_39"/>
</filter>
<filter id="filter1_f_64_39" x="616.683" y="143.166" width="920.769" height="729.875" filterUnits="userSpaceOnUse" color-interpolation-filters="sRGB">
<feFlood flood-opacity="0" result="BackgroundImageFix"/>
<feBlend mode="normal" in="SourceGraphic" in2="BackgroundImageFix" result="shape"/>
<feGaussianBlur stdDeviation="100" result="effect1_foregroundBlur_64_39"/>
</filter>
<filter id="filter2_f_64_39" x="2.97778" y="316.127" width="753.097" height="648.457" filterUnits="userSpaceOnUse" color-interpolation-filters="sRGB">
<feFlood flood-opacity="0" result="BackgroundImageFix"/>
<feBlend mode="normal" in="SourceGraphic" in2="BackgroundImageFix" result="shape"/>
<feGaussianBlur stdDeviation="50" result="effect1_foregroundBlur_64_39"/>
</filter>
</defs>
</svg>
